<?xml version="1.0" ?><svg width="60px" height="60px" viewBox="0 0 60 60" id="settings" xmlns="http://www.w3.org/2000/svg"><defs><style>
      .cls-1 {
        fill: #8b695c;
      }

      .cls-1, .cls-2 {
        fill-rule: evenodd;
      }

      .cls-2 {
        fill: #65727f;
      }
    </style></defs><path class="cls-1" d="M100,729.988A9.989,9.989,0,1,1,109.989,720,9.989,9.989,0,0,1,100,729.988ZM100,716a4,4,0,1,0,4,4A4,4,0,0,0,100,716Z" data-name="settings" id="settings-2" transform="translate(-70 -690)"/><path class="cls-2" d="M100,710.01m30,5.7v8.571l-9.563,1.913a21.514,21.514,0,0,1-1.618,3.848l5.424,8.136-6.061,6.061-8.063-5.375a21.006,21.006,0,0,1-3.945,1.688L104.285,750H95.714l-1.889-9.443a20.991,20.991,0,0,1-3.945-1.688l-8.063,5.375-6.061-6.061,5.424-8.136a21.447,21.447,0,0,1-1.618-3.848L70,724.284v-8.571l9.586-1.918a21.437,21.437,0,0,1,1.618-3.808l-5.447-8.171,6.061-6.061,8.136,5.424a20.928,20.928,0,0,1,3.854-1.644L95.714,690h8.571l1.908,9.536a20.911,20.911,0,0,1,3.853,1.644l8.136-5.424,6.061,6.061-5.447,8.171a21.526,21.526,0,0,1,1.618,3.808Zm-30-11.725A16.01,16.01,0,1,0,116.01,720,16.01,16.01,0,0,0,100,703.988Z" data-name="settings copy" id="settings_copy" transform="translate(-70 -690)"/></svg>