<?xml version="1.0" encoding="iso-8859-1"?>
<!-- Generator: Adobe Illustrator 19.0.0, SVG Export Plug-In . SVG Version: 6.00 Build 0)  -->
<svg version="1.1" id="Layer_1" xmlns="http://www.w3.org/2000/svg" xmlns:xlink="http://www.w3.org/1999/xlink" x="0px" y="0px"
	 viewBox="0 0 511.835 511.835" style="enable-background:new 0 0 511.835 511.835;" xml:space="preserve">
<path style="fill:#25B6D2;" d="M290.08,300.812v-34.288c-24.176-1.072-47.632-7.584-61.344-15.52l10.832-42.224
	c15.152,8.304,36.432,15.872,59.904,15.872c20.56,0,34.64-7.936,34.64-22.352c0-13.712-11.552-22.368-38.256-31.408
	c-38.608-12.992-64.96-31.024-64.96-66.032c0-31.744,22.368-56.64,60.992-64.224V6.38h35.36v31.744
	c24.176,1.072,40.4,6.144,52.32,11.904L369.12,90.812c-9.392-3.968-25.984-12.288-51.968-12.288
	c-23.456,0-31.024,10.112-31.024,20.224c0,11.904,12.624,19.488,43.296,31.024c42.944,15.152,60.272,35.008,60.272,67.472
	c0,32.128-22.736,59.552-64.24,66.768v36.8H290.08z"/>
<path style="fill:#2C3E50;" d="M108.816,356.3v132.16c0,0,60.48-31.68,90.72-16.48c30.24,15.2,113.44,37.12,163.36,32.96
	s130.08-70.24,145.28-92.16c15.2-22.08-19.68-24.8-54.4-6.88c-34.72,17.92-146.72,53.6-199.68,0c0,0,122.56,11.04,127.04,0
	s-13.6-28.96-108.96-49.6C176.816,335.66,108.816,356.3,108.816,356.3z"/>
<rect y="356.3" style="fill:#E04F5F;" width="72.64" height="148.64"/>
<g>
</g>
<g>
</g>
<g>
</g>
<g>
</g>
<g>
</g>
<g>
</g>
<g>
</g>
<g>
</g>
<g>
</g>
<g>
</g>
<g>
</g>
<g>
</g>
<g>
</g>
<g>
</g>
<g>
</g>
</svg>
